Coordinates
version=1
nRows=14
nColumns=36
inDegrees=yes

Units are S.I. units (second, meters, Newtons, ...)
If the header above contains a line with 'inDegrees', this indicates whether rotational values are in degrees (yes) or radians (no).

endheader
time	pelvis_tilt	pelvis_list	pelvis_rotation	pelvis_tx	pelvis_ty	pelvis_tz	hip_flexion_r	hip_adduction_r	hip_rotation_r	knee_angle_r	knee_angle_r_beta	ankle_angle_r	subtalar_angle_r	mtp_angle_r	hip_flexion_l	hip_adduction_l	hip_rotation_l	knee_angle_l	knee_angle_l_beta	ankle_angle_l	subtalar_angle_l	mtp_angle_l	lumbar_extension	lumbar_bending	lumbar_rotation	arm_flex_r	arm_add_r	arm_rot_r	elbow_flex_r	pro_sup_r	arm_flex_l	arm_add_l	arm_rot_l	elbow_flex_l	pro_sup_l
      4.16666670	     -4.88400204	     -3.85127396	     14.68507154	      0.21988061	      0.91537716	     -0.45379601	     41.88403498	     -4.51998836	     -3.53798390	     58.09263551	      1.01390776	     22.72474629	    -12.31908825	     -7.49999987	     44.30715018	    -10.06613646	     -1.99893794	     59.10840753	      1.03163633	     19.29553871	    -14.94378514	     -7.49999987	     -2.92659762	      1.50022505	      0.53529091	     29.61989833	    -13.48453376	     22.85238316	     37.60340227	     85.55132087	     33.42595326	     -7.30830250	     33.74523027	     41.85836703	     82.87733376
      4.18333330	     -3.32930029	     -2.92916043	     14.56864138	      0.22089525	      0.94440687	     -0.46114386	     37.20231580	     -5.15091719	     -4.09961001	     52.98457344	      0.92475526	     20.62005883	    -11.15983080	     -7.49999987	     39.13533543	     -8.98287049	     -2.61235878	     53.77088624	      0.93847901	     16.88156438	    -14.96918688	     -7.49999987	     -2.81330497	      0.87683104	      0.45691552	     29.20877342	    -13.71258074	     24.06606660	     37.73981808	     85.22630386	     33.08898893	     -6.82791352	     35.18959581	     41.70129358	     82.43598717
      4.20000000	     -2.44831420	     -2.40251437	     14.32879939	      0.22562742	      0.95981844	     -0.45976335	     33.41388542	     -5.30196924	     -4.53605769	     48.06402918	      0.83887556	     18.02471151	    -10.67722101	     -7.49999987	     35.12268838	     -8.30880882	     -2.94538237	     48.99846128	      0.85518448	     14.16346321	    -15.87161624	     -7.49999987	     -1.85418174	      0.36891634	      0.81574892	     28.31131218	    -13.69825915	     24.64939073	     37.59182623	     85.36670412	     32.27540109	     -6.46308381	     36.47327860	     41.52468858	     82.51916544
      4.21666670	     -1.89954158	     -1.94995494	     14.08185210	      0.22137428	      0.97448921	     -0.45964744	     30.10604158	     -5.39949767	     -4.95451605	     43.18861700	      0.75378357	     15.42756698	     -9.95266217	     -7.49999987	     32.02649787	     -7.64777322	     -3.37371636	     44.87549345	      0.78322511	     12.51812217	    -15.97745098	     -7.49999987	     -0.62024642	     -0.08045349	      1.04505676	     27.59668937	    -14.17271418	     25.38465427	     38.39951640	     85.35476211	     31.94459710	     -6.48035762	     38.39188575	     42.13181245	     82.43164884
      4.23333330	     -1.24609325	     -1.35423892	     13.99377093	      0.22381409	      0.99257709	     -0.46239367	     26.79811113	     -5.67025491	     -5.49006682	     38.59617117	      0.67363027	     12.81029299	     -8.95440321	     -7.49999987	     28.46440564	     -6.94336024	     -4.14744469	     40.09580728	      0.69980385	     11.25590424	    -15.29252892	     -7.49999987	      0.34606393	     -0.56050195	      1.70032301	     26.33908481	    -15.08220793	     25.94853040	     39.77162621	     84.21114080	     31.52147991	     -6.48801693	     41.01695780	     42.82751169	     81.26555278
      4.25000000	     -1.08959408	     -0.85041428	     13.87580326	      0.21852975	      1.00704473	     -0.46651684	     24.50282273	     -6.09407247	     -5.87426506	     34.57961979	      0.60352822	     10.41196213	     -7.93225886	     -7.49999987	     25.54600209	     -6.12286891	     -4.94573708	     35.24484293	      0.61513855	      9.69057936	    -14.34242514	     -7.49999987	      1.42322195	     -0.92215079	      1.87840412	     25.74991908	    -15.75229058	     26.43183879	     40.30193502	     84.23958559	     31.40039160	     -6.22241472	     41.84667444	     43.31115842	     81.05468136
      4.26666670	     -0.87152894	     -0.71403875	     13.87119244	      0.22945202	      1.02379450	     -0.46489449	     21.26615015	     -6.05745060	     -6.86824748	     29.57362141	      0.51615707	      8.31370070	     -6.81688103	     -7.49999987	     21.99576440	     -5.72801847	     -5.72974929	     29.42021312	      0.51347959	      7.34918640	    -13.25678131	     -7.49999987	      3.08257733	     -1.02597542	      2.07826304	     23.43552719	    -16.49862466	     26.44504853	     41.65316196	     84.76328798	     29.70655628	     -6.88233255	     42.51301913	     45.18008542	     81.35160168
      4.28333330	     -0.87431868	     -0.68904795	     13.89811812	      0.22352318	      1.03158128	     -0.46067404	     18.82535984	     -5.77847116	     -7.36297993	     24.97154450	      0.43583567	      6.27763981	     -5.52656023	     -7.49999987	     19.33889365	     -5.43481170	     -6.55861180	     24.19050563	      0.42220397	      6.25179656	    -11.36638116	     -7.49999987	      4.74934147	     -1.14289172	      2.39092937	     21.62606028	    -17.24238140	     26.49186321	     42.04705571	     84.42464705	     28.47304774	     -7.44179873	     43.13082222	     46.78095464	     80.89016193
      4.30000000	     -0.81501046	     -0.79540154	     14.25957490	      0.22846342	      1.04579986	     -0.46057558	     16.23160830	     -5.36600202	     -7.88298827	     20.58225654	      0.35922814	      4.41125874	     -4.62426713	     -7.49999987	     16.56402784	     -5.29826472	     -7.43774026	     19.03200098	      0.33217108	      5.10244481	     -9.10064071	     -7.49999987	      6.55293228	     -1.15646535	      2.28691126	     19.36155759	    -17.99013226	     26.59782823	     42.74167526	     84.72837970	     27.03702204	     -8.18365266	     43.60790804	     48.48375080	     81.05837774
      4.31666670	     -0.85434356	     -0.96948910	     14.50101276	      0.23259189	      1.06025077	     -0.46475926	     13.74912825	     -4.97741178	     -8.45966612	     16.22631045	      0.28320254	      2.87121434	     -3.24816433	     -7.49999987	     13.90536472	     -5.20304310	     -8.01524422	     14.22642254	      0.24829791	      4.58198604	     -6.40980193	     -7.49999987	      8.51384093	     -0.98875693	      2.26825816	     16.54972117	    -18.53077786	     25.97378692	     44.01595038	     83.93349495	     24.74685302	     -8.78775691	     44.30189234	     49.38978622	     80.05461324
      4.33333330	     -1.09697023	     -1.25108676	     14.71393450	      0.23237623	      1.06477315	     -0.46326534	     11.88571491	     -4.53558259	     -8.64528531	     12.74593173	      0.22245847	      1.67542650	     -2.38832444	     -7.49999987	     11.74282842	     -5.20295741	     -8.37088600	     10.06459151	      0.17566026	      4.81172670	     -3.73668327	     -7.49999987	     10.50862299	     -0.71666906	      2.21728562	     14.57458748	    -19.11824875	     25.99450261	     45.09297865	     83.36718513	     23.16236946	     -9.77789619	     45.86002123	     50.12285389	     79.49798759
      4.35000000	     -1.60001411	     -1.58545621	     14.92168729	      0.23064253	      1.06662820	     -0.46268394	     11.03914860	     -4.18775751	     -8.71563032	     10.63568324	      0.18562769	      1.02460029	     -1.86249457	     -7.49999987	     10.72791215	     -5.22114665	     -8.30300632	      7.47789014	      0.13051380	      6.07830932	     -1.48388393	     -7.49999987	     12.32628356	     -0.53167262	      1.95009668	     12.87952314	    -19.55329239	     25.68034091	     45.85105287	     82.69308831	     21.88248414	    -10.49421316	     47.19063599	     50.35855902	     78.84379768
      4.36666670	     -2.12425629	     -1.81561276	     14.80997190	      0.23181573	      1.06735543	     -0.46445018	     10.49425363	     -3.98778491	     -8.41575974	      9.22877664	      0.16107254	      0.74667413	     -1.58352333	     -7.49999987	      9.95787903	     -5.30929971	     -8.03672843	      5.71922380	      0.09981929	      7.74345592	      0.33207617	     -7.49999987	     13.97673910	     -0.41095798	      2.18360323	     10.98994141	    -19.93532290	     24.84016609	     46.21322990	     81.25735577	     20.73195594	    -11.17278909	     48.28294316	     50.90923734	     77.23570427
      4.38333330	     -2.71282508	     -2.11202066	     14.63166342	      0.22922556	      1.06381683	     -0.45656404	     10.47425576	     -3.70817697	     -7.89357610	      8.85254803	      0.15450611	      0.73243028	     -1.80252005	     -7.49999987	     10.03827748	     -5.52696508	     -7.68468731	      4.98967105	      0.08708619	      8.84801769	      1.35359439	     -7.49999987	     15.29243805	     -0.29266752	      2.17942763	      9.77788188	    -20.30594254	     24.91920146	     46.34407549	     79.07560963	     19.82864290	    -12.06408528	     48.64355877	     51.50646357	     75.32200040
